# xmcd CD database file
#
# Track frame offsets:
#	150
#	25366
#	51896
#	76979
#	101498
#	127443
#	148134
#	173048
#	200430
#	221146
#
# Disc length: 3184 seconds
#
# Revision: 0
# Processed by: cddbd v1.5.2PL0 Copyright (c) Steve Scherf et al.
# Submitted via: jetAudio 7
#
DISCID=980c6e0a
DTITLE=Zhao Cong  - Sound Of China Dance In The Moon
DYEAR=1900
DGENRE=장르 없음
TTITLE0=春江花月夜
TTITLE1=新编十面埋伏
TTITLE2=東方麗人
TTITLE3=放馬山歌
TTITLE4=牧
TTITLE5=天海藍藍
TTITLE6=月舞
TTITLE7=夜雨雙唱
TTITLE8=青春舞曲
TTITLE9=玫瑰花
EXTD=
EXTT0=
EXTT1=
EXTT2=
EXTT3=
EXTT4=
EXTT5=
EXTT6=
EXTT7=
EXTT8=
EXTT9=
PLAYORDER=
